<?xml version="1.0" standalone="no"?>
<!DOCTYPE svg PUBLIC "-//W3C//DTD SVG 20010904//EN"
 "http://www.w3.org/TR/2001/REC-SVG-20010904/DTD/svg10.dtd">
<svg version="1.0" xmlns="http://www.w3.org/2000/svg"
 width="1208.000000pt" height="1208.000000pt" viewBox="0 0 1208.000000 1208.000000"
 preserveAspectRatio="xMidYMid meet">

<g transform="translate(0.000000,1208.000000) scale(0.100000,-0.100000)"
fill="#000000" stroke="none">
<path d="M2090 7451 c0 -2217 1 -2308 36 -2481 86 -424 374 -820 759 -1043 74
-43 209 -106 263 -122 l22 -6 0 2925 0 2926 -540 0 -540 0 0 -2199z"/>
<path d="M5120 5623 l0 -4016 98 6 c784 52 1392 583 1512 1323 8 48 12 377 14
1065 3 1011 4 1037 42 1229 34 169 103 333 188 447 127 168 326 253 561 240
309 -18 469 -171 548 -527 21 -94 21 -105 24 -1937 l4 -1843 815 0 815 0 -4
2038 c-4 2227 -1 2113 -62 2408 -144 693 -554 1101 -1203 1199 -385 58 -778 8
-1092 -141 -205 -97 -430 -281 -565 -463 -33 -44 -63 -80 -67 -81 -5 0 -8 691
-8 1535 l0 1535 -810 0 -810 0 0 -4017z"/>
</g>
</svg>
